<svg xmlns="http://www.w3.org/2000/svg" viewBox="0 0 64 64">
  <rect width="64" height="64" fill="#fff"/>
  <rect width="64" height="14" y="0" fill="#d11f2f"/>
  <rect width="64" height="14" y="50" fill="#d11f2f"/>
  <path
    fill="#0f8a43"
    d="M32 14 28.6 23.3l-4.8-2.6 3 7.3-6.4-1.6 4.7 6.7-8-.3 6.8 5.3-6.4 3.4 8 .7-4.3 6 6.8-2.2-2.8 7 4.7-3 2.9 9.2 2.9-9.2 4.7 3-2.8-7 6.8 2.2-4.3-6 8-.7-6.4-3.4 6.8-5.3-8 .3 4.7-6.7-6.4 1.6 3-7.3-4.8 2.6z"
  />
  <rect x="29.25" y="44" width="5.5" height="10" rx="1.2" fill="#7a4a25"/>
</svg>
